{"title":"Metal.Hurlant.S01E05.Pledge.of.Anya.720p.AC3.2.0.x264.mkv","uid":8099047,"size":651474558,"categoryP":"video","categoryS":"hd___tv_shows","magnet":"?xt=urn:btih:959911a18ba815e6d3af896f4bb464869c0b65b6&amp;dn=Metal.Hurlant.S01E05.Pledge.of.Anya.720p.AC3.2.0.x264.mkv&amp;tr=udp%3A%2F%2Ftracker.openbittorrent.com%3A80&amp;tr=udp%3A%2F%2Fopen.demonii.com%3A1337&amp;tr=udp%3A%2F%2Ftracker.coppersurfer.tk%3A6969&amp;tr=udp%3A%2F%2Fexodus.desync.com%3A6969","seeders":1,"leechers":2,"uploader":"helder1965","files":-1,"time":1359920094,"description":"General\nMetal.Hurlant.S01E05.Pledge.of.Anya.720p.AC3.2.0.x264.mkv\nFormat                                   : Matroska\nFormat version                           : Version 2\nFile size                                : 621 MiB\nDuration                                 : 22mn 33s\nOverall bit rate                         : 3 850 Kbps\n\nVideo\nID                                       : 1\nFormat                                   : AVC\nFormat/Info                              : Advanced Video Codec\nFormat profile                           : &lt;a class=&quot;__cf_email__&quot; href=&quot;/cdn-cgi/l/email-protection&quot; data-cfemail=&quot;5119383639111d657f60&quot;&gt;[email&amp;#160;protected]&lt;/a&gt;&lt;script cf-hash='f9e31' type=&quot;text/javascript&quot;&gt;\n/* &lt;![CDATA[ */!function(){try{var t=&quot;currentScript&quot;in document?document.currentScript:function(){for(var t=document.getElementsByTagName(&quot;script&quot;),e=t.length;e--;)if(t[e].getAttribute(&quot;cf-hash&quot;))return t[e]}();if(t&amp;&amp;t.previousSibling){var e,r,n,i,c=t.previousSibling,a=c.getAttribute(&quot;data-cfemail&quot;);if(a){for(e=&quot;&quot;,r=parseInt(a.substr(0,2),16),n=2;a.length-n;n+=2)i=parseInt(a.substr(n,2),16)^r,e+=String.fromCharCode(i);e=document.createTextNode(e),c.parentNode.replaceChild(e,c)}}}catch(u){}}();/* ]]&gt; */&lt;/script&gt;\nFormat settings, CABAC                   : Yes\nFormat settings, ReFrames                : 9 frames\nCodec ID                                 : V_MPEG4/ISO/AVC\nDuration                                 : 22mn 33s\nBit rate                                 : 3 325 Kbps\nWidth                                    : 1 280 pixels\nHeight                                   : 720 pixels\nDisplay aspect ratio                     : 16:9\nFrame rate mode                          : Constant\nFrame rate                               : 25.000 fps\nColor space                              : YUV\nChroma subsampling                       : 4:2:0\nBit depth                                : 8 bits\nScan type                                : Progressive\nBits/(Pixel*Frame)                       : 0.144\nStream size                              : 537 MiB (86%)\n\nAudio\nID                                       : 2\nFormat                                   : AC-3\nFormat/Info                              : Audio Coding 3\nMode extension                           : CM (complete main)\nFormat settings, Endianness              : Big\nCodec ID                                 : A_AC3\nDuration                                 : 22mn 33s\nBit rate mode                            : Constant\nBit rate                                 : 448 Kbps\nChannel(s)                               : 2 channels\nChannel positions                        : Front: L R\nSampling rate                            : 48.0 KHz\nBit depth                                : 16 bits\nCompression mode                         : Lossy\nStream size                              : 72.3 MiB (12%)\n\nHail, Master Tozz!\nThe last two episodes of Metal Hurlant!\nIt's up to you now!\n\nEnjoy and seed it, buddies!\n@helder1965","torrent":{"xt":"urn:btih:959911a18ba815e6d3af896f4bb464869c0b65b6","amp;dn":"Metal.Hurlant.S01E05.Pledge.of.Anya.720p.AC3.2.0.x264.mkv","amp;tr":["udp%3A%2F%2Ftracker.openbittorrent.com%3A80","udp%3A%2F%2Fopen.demonii.com%3A1337","udp%3A%2F%2Ftracker.coppersurfer.tk%3A6969","udp%3A%2F%2Fexodus.desync.com%3A6969"],"infoHash":"959911a18ba815e6d3af896f4bb464869c0b65b6","infoHashBuffer":{"type":"Buffer","data":[149,153,17,161,139,168,21,230,211,175,137,111,75,180,100,134,156,11,101,182]},"announce":[],"urlList":[]}}